<?xml version="1.0" encoding="UTF-8"?>
<svg width="365px" height="301px" viewBox="0 0 365 301" version="1.1" xmlns="http://www.w3.org/2000/svg" xmlns:xlink="http://www.w3.org/1999/xlink">
    <g id="typo" stroke="none" stroke-width="1" fill="none" fill-rule="evenodd">
        <g id="Group-5" transform="translate(0.000000, 14.000000)" fill="#171717">
            <path d="M78.2,101.6 L29.2,101.6 L15.8,143 L0.8,143 L45.8,11.6 L62.2,11.6 L107,143 L91.4,143 L78.2,101.6 Z M74.4,89.8 L67.6,68.6 C62.26664,51.93325 57.733352,37.066732 54,24 L53.2,24 C48.799978,40.133414 44.333356,54.999932 39.8,68.6 L33,89.8 L74.4,89.8 Z M151.986667,142.1 C147.053309,139.899989 142.453355,136.866686 138.186667,133 L137.586667,133 L136.186667,143 L124.586667,143 L124.586667,0.2 L138.986667,0.2 L138.986667,39.8 L138.586667,57.6 C149.386721,48.26662 159.786617,43.6 169.786667,43.6 C182.186729,43.6 191.686634,48.033289 198.286667,56.9 C204.8867,65.766711 208.186667,77.799924 208.186667,93 C208.186667,103.66672 206.253353,112.966627 202.386667,120.9 C198.519981,128.833373 193.386699,134.899979 186.986667,139.1 C180.586635,143.300021 173.653371,145.4 166.186667,145.4 C161.653311,145.4 156.920025,144.300011 151.986667,142.1 Z M178.886667,128.1 C183.353356,124.833317 186.853321,120.20003 189.386667,114.2 C191.920013,108.19997 193.186667,101.20004 193.186667,93.2 C193.186667,81.599942 191.020022,72.500033 186.686667,65.9 C182.353312,59.299967 175.586713,56 166.386667,56 C158.119959,56 148.986717,60.66662 138.986667,70 L138.986667,122.4 C143.253355,126.000018 147.553312,128.666658 151.886667,130.4 C156.220022,132.133342 160.186649,133 163.786667,133 C169.386695,133 174.419978,131.366683 178.886667,128.1 Z M249.073333,139.3 C242.206632,135.233313 236.806686,129.400038 232.873333,121.8 C228.93998,114.199962 226.973333,105.133386 226.973333,94.6 C226.973333,84.199948 229.073312,75.133372 233.273333,67.4 C237.473354,59.666628 243.106631,53.766687 250.173333,49.7 C257.240035,45.633313 264.906625,43.6 273.173333,43.6 C283.706719,43.6 293.106625,47.466628 301.373333,55.2 L293.773333,64.8 C290.573317,61.866652 287.373349,59.633341 284.173333,58.1 C280.973317,56.566659 277.506685,55.8 273.773333,55.8 C267.773303,55.8 262.373357,57.433317 257.573333,60.7 C252.773309,63.966683 249.00668,68.533304 246.273333,74.4 C243.539986,80.266696 242.173333,86.999962 242.173333,94.6 C242.173333,106.200058 245.039971,115.533298 250.773333,122.6 C256.506695,129.666702 264.039953,133.2 273.373333,133.2 C281.773375,133.2 289.639963,129.8667 296.973333,123.2 L303.373333,133 C298.973311,136.866686 294.106693,139.899989 288.773333,142.1 C283.439973,144.300011 277.906695,145.4 272.173333,145.4 C263.639957,145.4 255.940034,143.366687 249.073333,139.3 Z" id="Abc"></path>
            <path d="M7.474,203.102 L4.044,203.102 L3.106,206 L2.056,206 L5.206,196.802 L6.354,196.802 L9.49,206 L8.398,206 L7.474,203.102 Z M7.208,202.276 L6.732,200.792 C6.3586648,199.625328 6.04133464,198.584671 5.78,197.67 L5.724,197.67 C5.41599846,198.799339 5.10333492,199.839995 4.786,200.792 L4.31,202.276 L7.208,202.276 Z M13.809,205.664 C13.4356648,205.327998 13.249,204.85667 13.249,204.25 C13.249,203.512663 13.5849966,202.945669 14.257,202.549 C14.9290034,202.152331 16.002326,201.874667 17.477,201.716 C17.477,201.183997 17.3673344,200.747668 17.148,200.407 C16.9286656,200.066332 16.5530027,199.896 16.021,199.896 C15.3769968,199.896 14.6910036,200.143331 13.963,200.638 L13.557,199.938 C14.4530045,199.340664 15.330329,199.042 16.189,199.042 C16.9730039,199.042 17.5516648,199.286998 17.925,199.777 C18.2983352,200.267002 18.485,200.941329 18.485,201.8 L18.485,206 L17.645,206 L17.561,205.174 L17.519,205.174 C16.7163293,205.83667 15.9556703,206.168 15.237,206.168 C14.6583304,206.168 14.1823352,206.000002 13.809,205.664 Z M16.462,205.111 C16.7746682,204.956999 17.1129982,204.716668 17.477,204.39 L17.477,202.402 C16.3103275,202.542001 15.4820025,202.756665 14.992,203.046 C14.5019976,203.335335 14.257,203.717998 14.257,204.194 C14.257,204.576669 14.3736655,204.863666 14.607,205.055 C14.8403345,205.246334 15.1389982,205.342 15.503,205.342 C15.8296683,205.342 16.1493318,205.265001 16.462,205.111 Z M28.859,196.802 L31.519,196.802 C32.4990049,196.802 33.2666639,196.986331 33.822,197.355 C34.3773361,197.723669 34.655,198.290663 34.655,199.056 C34.655,199.522669 34.5336679,199.935665 34.291,200.295 C34.0483321,200.654335 33.7123355,200.903999 33.283,201.044 L33.283,201.1 C33.8710029,201.212001 34.3353316,201.456998 34.676,201.835 C35.0166684,202.213002 35.187,202.70533 35.187,203.312 C35.187,204.189338 34.8766698,204.856664 34.256,205.314 C33.6353302,205.771336 32.7930053,206 31.729,206 L28.859,206 L28.859,196.802 Z M31.309,200.75 C32.8583411,200.75 33.633,200.227339 33.633,199.182 C33.633,198.631331 33.4463352,198.234668 33.073,197.992 C32.6996648,197.749332 32.1303372,197.628 31.365,197.628 L29.895,197.628 L29.895,200.75 L31.309,200.75 Z M31.561,205.174 C32.4010042,205.174 33.0449978,205.017668 33.493,204.705 C33.9410022,204.392332 34.165,203.91867 34.165,203.284 C34.165,202.126661 33.2970087,201.548 31.561,201.548 L29.895,201.548 L29.895,205.174 L31.561,205.174 Z M41.494,205.937 C41.1486649,205.782999 40.8266682,205.570668 40.528,205.3 L40.486,205.3 L40.388,206 L39.576,206 L39.576,196.004 L40.584,196.004 L40.584,198.776 L40.556,200.022 C41.3120038,199.368663 42.0399965,199.042 42.74,199.042 C43.6080043,199.042 44.2729977,199.35233 44.735,199.973 C45.1970023,200.59367 45.428,201.435995 45.428,202.5 C45.428,203.24667 45.292668,203.897664 45.022,204.453 C44.751332,205.008336 44.3920022,205.432999 43.944,205.727 C43.4959978,206.021001 43.0106693,206.168 42.488,206.168 C42.1706651,206.168 41.8393351,206.091001 41.494,205.937 Z M43.377,204.957 C43.6896682,204.728332 43.9346658,204.404002 44.112,203.984 C44.2893342,203.563998 44.378,203.074003 44.378,202.514 C44.378,201.701996 44.2263349,201.065002 43.923,200.603 C43.6196652,200.140998 43.1460032,199.91 42.502,199.91 C41.9233304,199.91 41.2840035,200.236663 40.584,200.89 L40.584,204.558 C40.8826682,204.810001 41.1836652,204.996666 41.487,205.118 C41.7903349,205.239334 42.0679987,205.3 42.32,205.3 C42.712002,205.3 43.0643318,205.185668 43.377,204.957 Z M56.803,205.594 C56.200997,205.211331 55.7296684,204.66067 55.389,203.942 C55.0483316,203.22333 54.878,202.378672 54.878,201.408 C54.878,200.446662 55.0506649,199.604337 55.396,198.881 C55.7413351,198.157663 56.2219969,197.602335 56.838,197.215 C57.4540031,196.827665 58.1493295,196.634 58.924,196.634 C59.4373359,196.634 59.9086645,196.741332 60.338,196.956 C60.7673355,197.170668 61.1266652,197.436665 61.416,197.754 L60.842,198.44 C60.3099973,197.842664 59.675337,197.544 58.938,197.544 C58.3406637,197.544 57.8180022,197.700332 57.37,198.013 C56.9219978,198.325668 56.5743346,198.768997 56.327,199.343 C56.0796654,199.917003 55.956,200.595996 55.956,201.38 C55.956,202.164004 56.0749988,202.847664 56.313,203.431 C56.5510012,204.014336 56.8916645,204.464665 57.335,204.782 C57.7783356,205.099335 58.2986637,205.258 58.896,205.258 C59.3253355,205.258 59.7149983,205.169334 60.065,204.992 C60.4150018,204.814666 60.7533317,204.548668 61.08,204.194 L61.654,204.838 C61.2806648,205.276669 60.8653356,205.607999 60.408,205.832 C59.9506644,206.056001 59.4326696,206.168 58.854,206.168 C58.0886628,206.168 57.405003,205.976669 56.803,205.594 Z M66.946,205.741 C66.4653309,205.456332 66.0873347,205.048003 65.812,204.516 C65.5366653,203.983997 65.399,203.349337 65.399,202.612 C65.399,201.883996 65.5459985,201.249336 65.84,200.708 C66.1340015,200.166664 66.5283309,199.753668 67.023,199.469 C67.5176691,199.184332 68.0543304,199.042 68.633,199.042 C69.370337,199.042 70.0283304,199.312664 70.607,199.854 L70.075,200.526 C69.8509989,200.320666 69.6270011,200.164334 69.403,200.057 C69.1789989,199.949666 68.9363346,199.896 68.675,199.896 C68.2549979,199.896 67.8770017,200.010332 67.541,200.239 C67.2049983,200.467668 66.9413343,200.787331 66.75,201.198 C66.5586657,201.608669 66.463,202.079997 66.463,202.612 C66.463,203.424004 66.6636647,204.077331 67.065,204.572 C67.4663353,205.066669 67.9936634,205.314 68.647,205.314 C69.2350029,205.314 69.7856641,205.080669 70.299,204.614 L70.747,205.3 C70.4389985,205.570668 70.0983352,205.782999 69.725,205.937 C69.3516648,206.091001 68.9643353,206.168 68.563,206.168 C67.9656637,206.168 67.4266691,206.025668 66.946,205.741 Z M80.435,196.802 L82.689,196.802 C84.089007,196.802 85.1553297,197.198663 85.888,197.992 C86.6206703,198.785337 86.987,199.909993 86.987,201.366 C86.987,202.822007 86.6206703,203.958329 85.888,204.775 C85.1553297,205.591671 84.1030069,206 82.731,206 L80.435,206 L80.435,196.802 Z M82.605,205.146 C83.7063388,205.146 84.5346639,204.817003 85.09,204.159 C85.6453361,203.500997 85.923,202.570006 85.923,201.366 C85.923,200.180661 85.6453361,199.266003 85.09,198.622 C84.5346639,197.977997 83.7063388,197.656 82.605,197.656 L81.471,197.656 L81.471,205.146 L82.605,205.146 Z M91.789,205.23 C91.2896642,204.604664 91.04,203.732006 91.04,202.612 C91.04,201.902663 91.175332,201.277336 91.446,200.736 C91.716668,200.194664 92.0783311,199.777001 92.531,199.483 C92.9836689,199.188999 93.4713307,199.042 93.994,199.042 C94.3580018,199.042 94.6846652,199.107333 94.974,199.238 C95.2633348,199.368667 95.5806649,199.569332 95.926,199.84 L95.884,198.664 L95.884,196.004 L96.892,196.004 L96.892,206 L96.052,206 L95.968,205.174 L95.926,205.174 C95.6366652,205.472668 95.3123351,205.712999 94.953,205.895 C94.5936649,206.077001 94.218002,206.168 93.826,206.168 C92.967329,206.168 92.2883358,205.855336 91.789,205.23 Z M94.981,205.062 C95.2750015,204.903333 95.5759985,204.660668 95.884,204.334 L95.884,200.652 C95.5853318,200.390665 95.2960014,200.201667 95.016,200.085 C94.7359986,199.968333 94.4466682,199.91 94.148,199.91 C93.7653314,199.91 93.4176682,200.026665 93.105,200.26 C92.7923318,200.493335 92.5450009,200.815331 92.363,201.226 C92.1809991,201.636669 92.09,202.098664 92.09,202.612 C92.09,203.452004 92.2603316,204.109998 92.601,204.586 C92.9416684,205.062002 93.4246635,205.3 94.05,205.3 C94.3766683,205.3 94.6869985,205.220667 94.981,205.062 Z M107.42,196.802 L112.642,196.802 L112.642,197.684 L108.456,197.684 L108.456,200.722 L111.984,200.722 L111.984,201.59 L108.456,201.59 L108.456,205.118 L112.782,205.118 L112.782,206 L107.42,206 L107.42,196.802 Z M122.281,202.836 L117.591,202.836 C117.637667,203.629337 117.882664,204.245331 118.326,204.684 C118.769336,205.122669 119.312997,205.342 119.957,205.342 C120.554336,205.342 121.128331,205.160002 121.679,204.796 L122.057,205.468 C121.720998,205.682668 121.375668,205.852999 121.021,205.979 C120.666332,206.105001 120.269669,206.168 119.831,206.168 C119.233664,206.168 118.690002,206.025668 118.2,205.741 C117.709998,205.456332 117.322668,205.043336 117.038,204.502 C116.753332,203.960664 116.611,203.33067 116.611,202.612 C116.611,201.902663 116.753332,201.277336 117.038,200.736 C117.322668,200.194664 117.698331,199.777001 118.165,199.483 C118.631669,199.188999 119.126331,199.042 119.649,199.042 C120.489004,199.042 121.144664,199.324331 121.616,199.889 C122.087336,200.453669 122.323,201.230662 122.323,202.22 C122.323,202.462668 122.309,202.667999 122.281,202.836 Z M121.413,202.094 C121.413,201.37533 121.259002,200.824669 120.951,200.442 C120.642998,200.059331 120.213669,199.868 119.663,199.868 C119.158997,199.868 118.711002,200.059331 118.319,200.442 C117.926998,200.824669 117.693667,201.37533 117.619,202.094 L121.413,202.094 Z M132.179,196.802 L137.401,196.802 L137.401,197.684 L133.215,197.684 L133.215,200.932 L136.757,200.932 L136.757,201.8 L133.215,201.8 L133.215,206 L132.179,206 L132.179,196.802 Z M142.742,198.048 L142.742,199.21 L144.212,199.21 L144.212,200.05 L142.742,200.05 L142.742,206 L141.72,206 L141.72,200.05 L140.796,200.05 L140.796,199.28 L141.72,199.21 L141.72,198.034 C141.72,197.333997 141.880998,196.792669 142.203,196.41 C142.525002,196.027331 143.00333,195.836 143.638,195.836 C144.002002,195.836 144.365998,195.910666 144.73,196.06 L144.506,196.844 C144.244665,196.731999 143.983335,196.676 143.722,196.676 C143.068663,196.676 142.742,197.133329 142.742,198.048 Z M155.097,205.594 C154.47633,205.211331 153.993335,204.66067 153.648,203.942 C153.302665,203.22333 153.13,202.378672 153.13,201.408 C153.13,200.437328 153.307332,199.59267 153.662,198.874 C154.016668,198.15533 154.51133,197.602335 155.146,197.215 C155.78067,196.827665 156.503996,196.634 157.316,196.634 C158.333338,196.634 159.205996,197.00733 159.934,197.754 L159.36,198.44 C158.799997,197.842664 158.128004,197.544 157.344,197.544 C156.70933,197.544 156.156336,197.700332 155.685,198.013 C155.213664,198.325668 154.849668,198.768997 154.593,199.343 C154.336332,199.917003 154.208,200.595996 154.208,201.38 C154.208,202.574673 154.483331,203.519663 155.034,204.215 C155.584669,204.910337 156.349995,205.258 157.33,205.258 C157.675335,205.258 158.006665,205.204334 158.324,205.097 C158.641335,204.989666 158.897999,204.847334 159.094,204.67 L159.094,202.164 L157.078,202.164 L157.078,201.296 L160.046,201.296 L160.046,205.104 C159.737998,205.430668 159.341336,205.689666 158.856,205.881 C158.370664,206.072334 157.829336,206.168 157.232,206.168 C156.429329,206.168 155.71767,205.976669 155.097,205.594 Z M165.044,208.674 C164.535331,208.347332 164.281,207.899336 164.281,207.33 C164.281,207.040665 164.367332,206.760668 164.54,206.49 C164.712668,206.219332 164.957665,205.976668 165.275,205.762 L165.275,205.706 C165.097666,205.593999 164.953001,205.444668 164.841,205.258 C164.728999,205.071332 164.673,204.852001 164.673,204.6 C164.673,204.338665 164.745333,204.098334 164.89,203.879 C165.034667,203.659666 165.209666,203.480001 165.415,203.34 L165.415,203.284 C165.172332,203.087999 164.967001,202.831335 164.799,202.514 C164.630999,202.196665 164.547,201.846669 164.547,201.464 C164.547,200.987998 164.658999,200.565669 164.883,200.197 C165.107001,199.828331 165.410331,199.543668 165.793,199.343 C166.175669,199.142332 166.595664,199.042 167.053,199.042 C167.361002,199.042 167.673665,199.097999 167.991,199.21 L170.343,199.21 L170.343,200.008 L168.901,200.008 C169.078334,200.176001 169.222999,200.390665 169.335,200.652 C169.447001,200.913335 169.503,201.188665 169.503,201.478 C169.503,201.944669 169.395668,202.357665 169.181,202.717 C168.966332,203.076335 168.672335,203.353999 168.299,203.55 C167.925665,203.746001 167.510336,203.844 167.053,203.844 C166.679665,203.844 166.334335,203.764667 166.017,203.606 C165.867666,203.727334 165.753334,203.850999 165.674,203.977 C165.594666,204.103001 165.555,204.259332 165.555,204.446 C165.555,204.688668 165.645999,204.877666 165.828,205.013 C166.010001,205.148334 166.320331,205.216 166.759,205.216 L168.117,205.216 C168.910337,205.216 169.498331,205.346665 169.881,205.608 C170.263669,205.869335 170.455,206.275331 170.455,206.826 C170.455,207.236669 170.315001,207.621665 170.035,207.981 C169.754999,208.340335 169.358336,208.627332 168.845,208.842 C168.331664,209.056668 167.74367,209.164 167.081,209.164 C166.231662,209.164 165.552669,209.000668 165.044,208.674 Z M168.124,202.675 C168.418001,202.362332 168.565,201.958669 168.565,201.464 C168.565,200.959997 168.420335,200.556335 168.131,200.253 C167.841665,199.949665 167.482335,199.798 167.053,199.798 C166.623665,199.798 166.262001,199.949665 165.968,200.253 C165.673999,200.556335 165.527,200.959997 165.527,201.464 C165.527,201.958669 165.673999,202.362332 165.968,202.675 C166.262001,202.987668 166.623665,203.144 167.053,203.144 C167.473002,203.144 167.829999,202.987668 168.124,202.675 Z M168.376,208.233 C168.716668,208.097666 168.980332,207.915668 169.167,207.687 C169.353668,207.458332 169.447,207.218001 169.447,206.966 C169.447,206.648665 169.330335,206.422334 169.097,206.287 C168.863666,206.151666 168.509002,206.084 168.033,206.084 L166.787,206.084 C166.497665,206.084 166.208335,206.046667 165.919,205.972 C165.424331,206.317335 165.177,206.723331 165.177,207.19 C165.177,207.572669 165.358998,207.875999 165.723,208.1 C166.087002,208.324001 166.58633,208.436 167.221,208.436 C167.650335,208.436 168.035332,208.368334 168.376,208.233 Z M179.961,196.802 L180.997,196.802 L180.997,200.694 L185.435,200.694 L185.435,196.802 L186.471,196.802 L186.471,206 L185.435,206 L185.435,201.604 L180.997,201.604 L180.997,206 L179.961,206 L179.961,196.802 Z M191.56,196.004 L192.568,196.004 L192.568,198.776 L192.54,200.204 C192.913335,199.830665 193.277332,199.543668 193.632,199.343 C193.986668,199.142332 194.378665,199.042 194.808,199.042 C195.517337,199.042 196.039998,199.263664 196.376,199.707 C196.712002,200.150336 196.88,200.810662 196.88,201.688 L196.88,206 L195.858,206 L195.858,201.814 C195.858,201.160663 195.753001,200.684668 195.543,200.386 C195.332999,200.087332 194.990002,199.938 194.514,199.938 C194.177998,199.938 193.865335,200.024332 193.576,200.197 C193.286665,200.369668 192.950669,200.647331 192.568,201.03 L192.568,206 L191.56,206 L191.56,196.004 Z M207.268,196.802 L208.304,196.802 L208.304,206 L207.268,206 L207.268,196.802 Z M213.393,199.21 L214.401,199.21 L214.401,206 L213.393,206 L213.393,199.21 Z M213.407,197.558 C213.276333,197.427333 213.211,197.254668 213.211,197.04 C213.211,196.834666 213.276333,196.669001 213.407,196.543 C213.537667,196.416999 213.705666,196.354 213.911,196.354 C214.116334,196.354 214.284333,196.416999 214.415,196.543 C214.545667,196.669001 214.611,196.834666 214.611,197.04 C214.611,197.254668 214.545667,197.427333 214.415,197.558 C214.284333,197.688667 214.116334,197.754 213.911,197.754 C213.705666,197.754 213.537667,197.688667 213.407,197.558 Z M224.117,204.726 L224.859,204.208 C225.064334,204.572002 225.302332,204.837999 225.573,205.006 C225.843668,205.174001 226.151665,205.258 226.497,205.258 C227.010336,205.258 227.390665,205.097002 227.638,204.775 C227.885335,204.452998 228.009,203.942003 228.009,203.242 L228.009,196.802 L229.045,196.802 L229.045,203.34 C229.045,204.180004 228.844335,204.861331 228.443,205.384 C228.041665,205.906669 227.421004,206.168 226.581,206.168 C225.470328,206.168 224.649003,205.687338 224.117,204.726 Z M234.12,197.558 C233.989333,197.427333 233.924,197.254668 233.924,197.04 C233.924,196.834666 233.989333,196.669001 234.12,196.543 C234.250667,196.416999 234.418666,196.354 234.624,196.354 C234.829334,196.354 234.997333,196.416999 235.128,196.543 C235.258667,196.669001 235.324,196.834666 235.324,197.04 C235.324,197.254668 235.258667,197.427333 235.128,197.558 C234.997333,197.688667 234.829334,197.754 234.624,197.754 C234.418666,197.754 234.250667,197.688667 234.12,197.558 Z M234.148,199.21 L235.156,199.21 L235.156,206.896 C235.156,207.605337 235.013668,208.146665 234.729,208.52 C234.444332,208.893335 233.994003,209.08 233.378,209.08 C233.032665,209.08 232.710668,209.024001 232.412,208.912 L232.622,208.128 C232.846001,208.202667 233.065332,208.24 233.28,208.24 C233.606668,208.24 233.830666,208.128001 233.952,207.904 C234.073334,207.679999 234.134,207.339336 234.134,206.882 L234.148,199.21 Z M245.642,196.802 L246.678,196.802 L246.678,201.548 L246.706,201.548 L250.696,196.802 L251.872,196.802 L248.974,200.288 L252.306,206 L251.144,206 L248.33,201.086 L246.678,203.032 L246.678,206 L245.642,206 L245.642,196.802 Z M256.191,196.004 L257.185,196.004 L257.185,202.92 L257.227,202.92 L260.237,199.21 L261.371,199.21 L259.103,201.926 L261.679,206 L260.573,206 L258.515,202.64 L257.185,204.208 L257.185,206 L256.191,206 L256.191,196.004 Z M271.157,196.802 L272.193,196.802 L272.193,205.118 L276.253,205.118 L276.253,206 L271.157,206 L271.157,196.802 Z M280.684,205.811 C280.506666,205.572999 280.418,205.220669 280.418,204.754 L280.418,196.004 L281.426,196.004 L281.426,204.838 C281.426,204.996667 281.456333,205.115666 281.517,205.195 C281.577667,205.274334 281.654666,205.314 281.748,205.314 C281.822667,205.314 281.906666,205.304667 282,205.286 L282.14,206.07 C281.962666,206.135334 281.757335,206.168 281.524,206.168 C281.141331,206.168 280.861334,206.049001 280.684,205.811 Z M292.066,196.802 L293.34,196.802 L295.146,201.842 L295.818,203.788 L295.874,203.788 C295.939334,203.610666 296.027999,203.344668 296.14,202.99 C296.289334,202.541998 296.419999,202.159335 296.532,201.842 L298.31,196.802 L299.598,196.802 L299.598,206 L298.632,206 L298.632,200.68 C298.632,200.119997 298.674,199.233339 298.758,198.02 L298.702,198.02 L297.974,200.106 L296.182,205.048 L295.454,205.048 L293.648,200.106 L292.92,198.02 L292.864,198.02 L292.892,198.37 C292.966667,199.359338 293.004,200.129331 293.004,200.68 L293.004,206 L292.066,206 L292.066,196.802 Z M304.687,199.21 L305.527,199.21 L305.611,200.218 L305.653,200.218 C306.37167,199.433996 307.07633,199.042 307.767,199.042 C308.728338,199.042 309.353665,199.480662 309.643,200.358 C310.035002,199.928665 310.412998,199.602001 310.777,199.378 C311.141002,199.153999 311.514331,199.042 311.897,199.042 C313.269007,199.042 313.955,199.923991 313.955,201.688 L313.955,206 L312.933,206 L312.933,201.814 C312.933,201.160663 312.825668,200.684668 312.611,200.386 C312.396332,200.087332 312.060336,199.938 311.603,199.938 C311.070997,199.938 310.478337,200.301996 309.825,201.03 L309.825,206 L308.803,206 L308.803,201.814 C308.803,201.169997 308.695668,200.696335 308.481,200.393 C308.266332,200.089665 307.935002,199.938 307.487,199.938 C306.954997,199.938 306.35767,200.301996 305.695,201.03 L305.695,206 L304.687,206 L304.687,199.21 Z M3.288,235.802 L4.352,235.802 L7.824,241.766 L8.832,243.656 L8.888,243.656 L8.846,243.04 C8.83666662,242.890666 8.81800014,242.575669 8.79,242.095 C8.76199986,241.614331 8.748,241.178002 8.748,240.786 L8.748,235.802 L9.728,235.802 L9.728,245 L8.664,245 L5.192,239.036 L4.184,237.146 L4.128,237.146 L4.17,237.818 C4.23533366,238.630004 4.268,239.343997 4.268,239.96 L4.268,245 L3.288,245 L3.288,235.802 Z M14.831,238.21 L15.671,238.21 L15.755,239.218 L15.797,239.218 C16.1703352,238.844665 16.5366649,238.555334 16.896,238.35 C17.2553351,238.144666 17.6496645,238.042 18.079,238.042 C18.7883369,238.042 19.3109983,238.263664 19.647,238.707 C19.9830017,239.150336 20.151,239.810662 20.151,240.688 L20.151,245 L19.129,245 L19.129,240.814 C19.129,240.160663 19.0240011,239.684668 18.814,239.386 C18.603999,239.087332 18.2610024,238.938 17.785,238.938 C17.4489983,238.938 17.1363348,239.024332 16.847,239.197 C16.5576652,239.369668 16.2216686,239.647331 15.839,240.03 L15.839,245 L14.831,245 L14.831,238.21 Z M31.897,244.58 C31.3089971,244.187998 30.849335,243.628004 30.518,242.9 C30.186665,242.171996 30.021,241.327338 30.021,240.366 C30.021,239.404662 30.186665,238.567004 30.518,237.853 C30.849335,237.138996 31.3089971,236.590669 31.897,236.208 C32.4850029,235.825331 33.1616628,235.634 33.927,235.634 C34.6830038,235.634 35.3549971,235.825331 35.943,236.208 C36.5310029,236.590669 36.990665,237.138996 37.322,237.853 C37.653335,238.567004 37.819,239.404662 37.819,240.366 C37.819,241.327338 37.653335,242.171996 37.322,242.9 C36.990665,243.628004 36.5310029,244.187998 35.943,244.58 C35.3549971,244.972002 34.6830038,245.168 33.927,245.168 C33.1616628,245.168 32.4850029,244.972002 31.897,244.58 Z M35.404,243.775 C35.8286688,243.452998 36.1576655,243.000336 36.391,242.417 C36.6243345,241.833664 36.741,241.150004 36.741,240.366 C36.741,239.591329 36.6243345,238.917003 36.391,238.343 C36.1576655,237.768997 35.8286688,237.325668 35.404,237.013 C34.9793312,236.700332 34.4870028,236.544 33.927,236.544 C33.3576638,236.544 32.8606688,236.700332 32.436,237.013 C32.0113312,237.325668 31.6823345,237.768997 31.449,238.343 C31.2156655,238.917003 31.099,239.591329 31.099,240.366 C31.099,241.150004 31.2156655,241.835997 31.449,242.424 C31.6823345,243.012003 32.0136645,243.464665 32.443,243.782 C32.8723355,244.099335 33.3669972,244.258 33.927,244.258 C34.4870028,244.258 34.9793312,244.097002 35.404,243.775 Z M43.398,244.741 C42.9219976,244.456332 42.5416681,244.045669 42.257,243.509 C41.9723319,242.972331 41.83,242.340004 41.83,241.612 C41.83,240.883996 41.9723319,240.249336 42.257,239.708 C42.5416681,239.166664 42.9219976,238.753668 43.398,238.469 C43.8740024,238.184332 44.3919972,238.042 44.952,238.042 C45.5120028,238.042 46.0299976,238.184332 46.506,238.469 C46.9820024,238.753668 47.3623319,239.166664 47.647,239.708 C47.9316681,240.249336 48.074,240.883996 48.074,241.612 C48.074,242.340004 47.9316681,242.972331 47.647,243.509 C47.3623319,244.045669 46.9820024,244.456332 46.506,244.741 C46.0299976,245.025668 45.5120028,245.168 44.952,245.168 C44.3919972,245.168 43.8740024,245.025668 43.398,244.741 Z M46.023,243.978 C46.3356682,243.753999 46.5806658,243.436669 46.758,243.026 C46.9353342,242.615331 47.024,242.144003 47.024,241.612 C47.024,241.079997 46.9353342,240.608669 46.758,240.198 C46.5806658,239.787331 46.3356682,239.467668 46.023,239.239 C45.7103318,239.010332 45.3533353,238.896 44.952,238.896 C44.5506647,238.896 44.1936682,239.010332 43.881,239.239 C43.5683318,239.467668 43.3256675,239.787331 43.153,240.198 C42.9803325,240.608669 42.894,241.079997 42.894,241.612 C42.894,242.424004 43.0853314,243.077331 43.468,243.572 C43.8506686,244.066669 44.3453303,244.314 44.952,244.314 C45.3533353,244.314 45.7103318,244.202001 46.023,243.978 Z M58.07,235.802 L60.618,235.802 C61.7100055,235.802 62.5523304,236.009665 63.145,236.425 C63.7376696,236.840335 64.034,237.523995 64.034,238.476 C64.034,239.400005 63.7353363,240.097664 63.138,240.569 C62.5406637,241.040336 61.7193386,241.276 60.674,241.276 L59.106,241.276 L59.106,245 L58.07,245 L58.07,235.802 Z M60.52,240.422 C61.3693376,240.422 61.9946647,240.265668 62.396,239.953 C62.7973353,239.640332 62.998,239.148003 62.998,238.476 C62.998,237.803997 62.7926687,237.330335 62.382,237.055 C61.9713313,236.779665 61.3320043,236.642 60.464,236.642 L59.106,236.642 L59.106,240.422 L60.52,240.422 Z M68.465,238.21 L69.305,238.21 L69.389,239.022 L69.431,239.022 C70.2243373,238.368663 70.9569966,238.042 71.629,238.042 C72.4970043,238.042 73.1619977,238.35233 73.624,238.973 C74.0860023,239.59367 74.317,240.435995 74.317,241.5 C74.317,242.24667 74.181668,242.897664 73.911,243.453 C73.640332,244.008336 73.2810022,244.432999 72.833,244.727 C72.3849978,245.021001 71.8996693,245.168 71.377,245.168 C70.7703303,245.168 70.1263367,244.902003 69.445,244.37 L69.473,245.574 L69.473,247.912 L68.465,247.912 L68.465,238.21 Z M72.266,243.957 C72.5786682,243.728332 72.8236658,243.404002 73.001,242.984 C73.1783342,242.563998 73.267,242.074003 73.267,241.514 C73.267,240.701996 73.1153349,240.065002 72.812,239.603 C72.5086652,239.140998 72.0350032,238.91 71.391,238.91 C70.8216638,238.91 70.1823369,239.236663 69.473,239.89 L69.473,243.558 C69.7810015,243.819335 70.0843318,244.008333 70.383,244.125 C70.6816682,244.241667 70.9569987,244.3 71.209,244.3 C71.601002,244.3 71.9533318,244.185668 72.266,243.957 Z M91.733,247.086 C91.3783316,247.216667 90.9583358,247.282 90.473,247.282 C89.6703293,247.282 88.9843362,247.086002 88.415,246.694 C87.8456638,246.301998 87.425668,245.784003 87.155,245.14 C86.49233,245.056 85.9043359,244.806335 85.391,244.391 C84.8776641,243.975665 84.4810014,243.42267 84.201,242.732 C83.9209986,242.04133 83.781,241.252671 83.781,240.366 C83.781,239.404662 83.946665,238.567004 84.278,237.853 C84.609335,237.138996 85.0689971,236.590669 85.657,236.208 C86.2450029,235.825331 86.9216628,235.634 87.687,235.634 C88.4430038,235.634 89.1149971,235.825331 89.703,236.208 C90.2910029,236.590669 90.750665,237.138996 91.082,237.853 C91.413335,238.567004 91.579,239.404662 91.579,240.366 C91.579,241.243338 91.4413347,242.022663 91.166,242.704 C90.8906653,243.385337 90.5056691,243.933665 90.011,244.349 C89.5163309,244.764335 88.9423366,245.023333 88.289,245.126 C88.485001,245.536669 88.7836647,245.851666 89.185,246.071 C89.5863353,246.290334 90.0483307,246.4 90.571,246.4 C90.8883349,246.4 91.2056651,246.353334 91.523,246.26 L91.733,247.086 Z M85.209,242.445 C85.4423345,243.03767 85.7713312,243.494998 86.196,243.817 C86.6206688,244.139002 87.1176638,244.3 87.687,244.3 C88.2470028,244.3 88.7393312,244.139002 89.164,243.817 C89.5886688,243.494998 89.9176655,243.03767 90.151,242.445 C90.3843345,241.85233 90.501,241.159337 90.501,240.366 C90.501,239.591329 90.3843345,238.917003 90.151,238.343 C89.9176655,237.768997 89.5886688,237.325668 89.164,237.013 C88.7393312,236.700332 88.2470028,236.544 87.687,236.544 C87.1176638,236.544 86.6206688,236.700332 86.196,237.013 C85.7713312,237.325668 85.4423345,237.768997 85.209,238.343 C84.9756655,238.917003 84.859,239.591329 84.859,240.366 C84.859,241.159337 84.9756655,241.85233 85.209,242.445 Z M100.462,245.448 L100.504,244.188 C99.8319966,244.841337 99.1320036,245.168 98.404,245.168 C97.545329,245.168 96.8663358,244.855336 96.367,244.23 C95.8676642,243.604664 95.618,242.732006 95.618,241.612 C95.618,240.902663 95.753332,240.277336 96.024,239.736 C96.294668,239.194664 96.6563311,238.777001 97.109,238.483 C97.5616689,238.188999 98.0493307,238.042 98.572,238.042 C98.9453352,238.042 99.2836652,238.109666 99.587,238.245 C99.8903349,238.380334 100.200665,238.583332 100.518,238.854 L100.56,238.854 L100.658,238.21 L101.47,238.21 L101.47,247.912 L100.462,247.912 L100.462,245.448 Z M99.559,244.062 C99.8530015,243.903333 100.153998,243.660668 100.462,243.334 L100.462,239.652 C100.163332,239.390665 99.8740014,239.201667 99.594,239.085 C99.3139986,238.968333 99.0246682,238.91 98.726,238.91 C98.3433314,238.91 97.9956682,239.026665 97.683,239.26 C97.3703318,239.493335 97.1230009,239.815331 96.941,240.226 C96.7589991,240.636669 96.668,241.098664 96.668,241.612 C96.668,242.452004 96.8383316,243.109998 97.179,243.586 C97.5196684,244.062002 98.0026635,244.3 98.628,244.3 C98.9546683,244.3 99.2649985,244.220667 99.559,244.062 Z M117.052,245 L114.77,241.024 L113.034,241.024 L113.034,245 L111.998,245 L111.998,235.802 L114.812,235.802 C116.921344,235.802 117.976,236.651325 117.976,238.35 C117.976,239.050004 117.787002,239.619331 117.409,240.058 C117.030998,240.496669 116.506003,240.785999 115.834,240.926 L118.228,245 L117.052,245 Z M113.034,240.184 L114.644,240.184 C115.39067,240.184 115.959998,240.030002 116.352,239.722 C116.744002,239.413998 116.94,238.95667 116.94,238.35 C116.94,237.74333 116.748669,237.307001 116.366,237.041 C115.983331,236.774999 115.409337,236.642 114.644,236.642 L113.034,236.642 L113.034,240.184 Z M122.407,238.21 L123.247,238.21 L123.331,239.456 L123.373,239.456 C123.606335,239.017331 123.890998,238.672001 124.227,238.42 C124.563002,238.167999 124.922331,238.042 125.305,238.042 C125.575668,238.042 125.808999,238.088666 126.005,238.182 L125.809,239.078 C125.566332,239.003333 125.351668,238.966 125.165,238.966 C124.847665,238.966 124.532668,239.096665 124.22,239.358 C123.907332,239.619335 123.639001,240.025331 123.415,240.576 L123.415,245 L122.407,245 L122.407,238.21 Z M136.05,244.804 C135.503997,244.561332 135.030335,244.225335 134.629,243.796 L135.259,243.082 C135.595002,243.446002 135.986998,243.732999 136.435,243.943 C136.883002,244.153001 137.349664,244.258 137.835,244.258 C138.460336,244.258 138.952665,244.113335 139.312,243.824 C139.671335,243.534665 139.851,243.147336 139.851,242.662 C139.851,242.353998 139.785667,242.097334 139.655,241.892 C139.524333,241.686666 139.356334,241.523334 139.151,241.402 C138.945666,241.280666 138.656335,241.136001 138.283,240.968 L136.953,240.38 C136.411664,240.146665 135.966002,239.848002 135.616,239.484 C135.265998,239.119998 135.091,238.63467 135.091,238.028 C135.091,237.570664 135.212332,237.160002 135.455,236.796 C135.697668,236.431998 136.035998,236.147334 136.47,235.942 C136.904002,235.736666 137.386997,235.634 137.919,235.634 C138.451003,235.634 138.947998,235.736666 139.41,235.942 C139.872002,236.147334 140.266332,236.422665 140.593,236.768 L140.033,237.426 C139.42633,236.837997 138.721671,236.544 137.919,236.544 C137.377664,236.544 136.943668,236.674665 136.617,236.936 C136.290332,237.197335 136.127,237.542665 136.127,237.972 C136.127,238.261335 136.201666,238.503999 136.351,238.7 C136.500334,238.896001 136.672999,239.049999 136.869,239.162 C137.065001,239.274001 137.330998,239.404666 137.667,239.554 L138.997,240.142 C139.60367,240.394001 140.072665,240.706665 140.404,241.08 C140.735335,241.453335 140.901,241.95733 140.901,242.592 C140.901,243.077336 140.775001,243.515998 140.523,243.908 C140.270999,244.300002 139.911669,244.607999 139.445,244.832 C138.978331,245.056001 138.437003,245.168 137.821,245.168 C137.18633,245.168 136.596003,245.046668 136.05,244.804 Z M145.64,244.909 C145.201331,244.736332 144.814002,244.510001 144.478,244.23 L144.996,243.544 C145.332002,243.814668 145.658665,244.019999 145.976,244.16 C146.293335,244.300001 146.647998,244.37 147.04,244.37 C147.488002,244.37 147.833332,244.262668 148.076,244.048 C148.318668,243.833332 148.44,243.562668 148.44,243.236 C148.44,242.909332 148.302335,242.648001 148.027,242.452 C147.751665,242.255999 147.362003,242.069334 146.858,241.892 C146.213997,241.658665 145.710002,241.404335 145.346,241.129 C144.981998,240.853665 144.8,240.459336 144.8,239.946 C144.8,239.395331 145.007665,238.940335 145.423,238.581 C145.838335,238.221665 146.400663,238.042 147.11,238.042 C147.492669,238.042 147.861332,238.111999 148.216,238.252 C148.570668,238.392001 148.887999,238.573999 149.168,238.798 L148.678,239.456 C148.407332,239.259999 148.150668,239.110667 147.908,239.008 C147.665332,238.905333 147.399335,238.854 147.11,238.854 C146.680665,238.854 146.354001,238.954332 146.13,239.155 C145.905999,239.355668 145.794,239.600665 145.794,239.89 C145.794,240.095334 145.861666,240.272666 145.997,240.422 C146.132334,240.571334 146.297999,240.690333 146.494,240.779 C146.690001,240.867667 146.965332,240.981999 147.32,241.122 C147.796002,241.299334 148.169332,241.457999 148.44,241.598 C148.710668,241.738001 148.943999,241.936332 149.14,242.193 C149.336001,242.449668 149.434,242.778665 149.434,243.18 C149.434,243.544002 149.338334,243.877665 149.147,244.181 C148.955666,244.484335 148.675669,244.724666 148.307,244.902 C147.938331,245.079334 147.502003,245.168 146.998,245.168 C146.531331,245.168 146.078669,245.081668 145.64,244.909 Z M161.166,236.684 L158.338,236.684 L158.338,235.802 L165.016,235.802 L165.016,236.684 L162.202,236.684 L162.202,245 L161.166,245 L161.166,236.684 Z M169.587,244.594 C169.297665,244.211331 169.153,243.665337 169.153,242.956 L169.153,239.05 L168.131,239.05 L168.131,238.28 L169.195,238.21 L169.321,236.292 L170.175,236.292 L170.175,238.21 L172.037,238.21 L172.037,239.05 L170.175,239.05 L170.175,242.984 C170.175,243.432002 170.256666,243.767999 170.42,243.992 C170.583334,244.216001 170.860998,244.328 171.253,244.328 C171.449001,244.328 171.710332,244.267334 172.037,244.146 L172.247,244.916 C171.742997,245.084001 171.337002,245.168 171.029,245.168 C170.356997,245.168 169.876335,244.976669 169.587,244.594 Z M182.593,244.251 C182.004997,243.639664 181.711,242.648007 181.711,241.276 L181.711,235.802 L182.747,235.802 L182.747,241.276 C182.747,242.340005 182.947665,243.102998 183.349,243.565 C183.750335,244.027002 184.286997,244.258 184.959,244.258 C185.64967,244.258 186.200331,244.027002 186.611,243.565 C187.021669,243.102998 187.227,242.340005 187.227,241.276 L187.227,235.802 L188.221,235.802 L188.221,241.276 C188.221,242.648007 187.92467,243.639664 187.332,244.251 C186.73933,244.862336 185.948338,245.168 184.959,245.168 C183.969662,245.168 183.181003,244.862336 182.593,244.251 Z M193.688,244.503 C193.351998,244.059664 193.184,243.399338 193.184,242.522 L193.184,238.21 L194.192,238.21 L194.192,242.396 C194.192,243.049337 194.299332,243.527665 194.514,243.831 C194.728668,244.134335 195.073998,244.286 195.55,244.286 C195.895335,244.286 196.210332,244.192668 196.495,244.006 C196.779668,243.819332 197.099332,243.511335 197.454,243.082 L197.454,238.21 L198.476,238.21 L198.476,245 L197.622,245 L197.538,243.922 L197.496,243.922 C197.150665,244.323335 196.798335,244.631332 196.439,244.846 C196.079665,245.060668 195.680669,245.168 195.242,245.168 C194.541997,245.168 194.024002,244.946336 193.688,244.503 Z M207.716,235.802 L208.822,235.802 L210.362,240.87 C210.511334,241.402003 210.618666,241.765999 210.684,241.962 C210.842667,242.559336 211.033999,243.212663 211.258,243.922 L211.314,243.922 C211.416667,243.613998 211.631332,242.904672 211.958,241.794 L212.224,240.87 L213.764,235.802 L214.814,235.802 L211.874,245 L210.684,245 L207.716,235.802 Z M217.495,238.21 L218.545,238.21 L219.889,242.172 L220.533,244.16 L220.589,244.16 L221.233,242.172 L222.577,238.21 L223.585,238.21 L221.149,245 L219.973,245 L217.495,238.21 Z M232.139,235.802 L233.217,235.802 L234.225,240.912 L234.785,243.894 L234.841,243.894 C234.981001,243.23133 235.200332,242.23734 235.499,240.912 L236.829,235.802 L237.781,235.802 L239.097,240.912 C239.209001,241.416003 239.297666,241.793999 239.363,242.046 L239.783,243.894 L239.839,243.894 L239.993,243.068 C240.151667,242.181329 240.282333,241.462669 240.385,240.912 L241.393,235.802 L242.401,235.802 L240.455,245 L239.223,245 L237.753,239.274 C237.715666,239.096666 237.680667,238.938001 237.648,238.798 C237.615333,238.657999 237.589667,238.536667 237.571,238.434 C237.496333,238.097998 237.407667,237.682669 237.305,237.188 L237.249,237.188 L236.773,239.274 L235.345,245 L234.127,245 L232.139,235.802 Z M245.712,238.21 L246.762,238.21 L247.826,242.256 L247.952,242.858 C248.082667,243.418003 248.176,243.842665 248.232,244.132 L248.288,244.132 C248.465334,243.403996 248.623999,242.778669 248.764,242.256 L249.856,238.21 L250.878,238.21 L251.984,242.256 L252.46,244.132 L252.516,244.132 L252.964,242.256 L254,238.21 L254.98,238.21 L253.132,245 L251.872,245 L250.836,241.206 L250.57,240.1 C250.551333,240.025333 250.486001,239.745336 250.374,239.26 L250.318,239.26 C250.112666,240.184005 249.949334,240.841998 249.828,241.234 L248.82,245 L247.63,245 L245.712,238.21 Z M266.278,240.24 L263.758,235.802 L264.906,235.802 L266.222,238.252 L266.95,239.568 L267.006,239.568 C267.239335,239.073331 267.458666,238.634669 267.664,238.252 L268.952,235.802 L270.044,235.802 L267.524,240.296 L270.226,245 L269.078,245 L267.664,242.438 C267.533333,242.176665 267.328001,241.798669 267.048,241.304 C267.029333,241.266666 267.003667,241.217667 266.971,241.157 C266.938333,241.096333 266.903334,241.033334 266.866,240.968 L266.81,240.968 C266.669999,241.266668 266.469335,241.667997 266.208,242.172 L266.068,242.438 L264.668,245 L263.59,245 L266.278,240.24 Z M275.357,241.458 L273.285,238.21 L274.391,238.21 L275.343,239.764 C275.641668,240.268003 275.870333,240.641332 276.029,240.884 L276.085,240.884 L276.715,239.764 L277.597,238.21 L278.661,238.21 L276.603,241.556 L278.829,245 L277.723,245 L276.673,243.348 C276.392999,242.862664 276.145668,242.456668 275.931,242.13 L275.875,242.13 C275.725666,242.372668 275.567001,242.643332 275.399,242.942 L275.161,243.348 L274.181,245 L273.117,245 L275.357,241.458 Z M289.833,241.388 L287.075,235.802 L288.181,235.802 L289.413,238.476 L289.651,238.994 C290.024335,239.806004 290.253,240.295999 290.337,240.464 L290.393,240.464 L290.631,239.974 C291.023002,239.152663 291.256333,238.653334 291.331,238.476 L292.563,235.802 L293.641,235.802 L290.869,241.388 L290.869,245 L289.833,245 L289.833,241.388 Z M296.504,247.828 L296.7,247.002 C296.886668,247.076667 297.063999,247.114 297.232,247.114 C297.605335,247.114 297.922665,246.974001 298.184,246.694 C298.445335,246.413999 298.655333,246.036002 298.814,245.56 L298.982,245.042 L296.238,238.21 L297.288,238.21 L298.744,242.102 L299.416,244.006 L299.472,244.006 C299.602667,243.613998 299.737999,243.184669 299.878,242.718 L300.06,242.102 L301.334,238.21 L302.328,238.21 L299.752,245.63 C299.490665,246.358004 299.166335,246.929665 298.779,247.345 C298.391665,247.760335 297.890003,247.968 297.274,247.968 C296.993999,247.968 296.737335,247.921334 296.504,247.828 Z M311.19,244.384 L316.146,236.684 L311.638,236.684 L311.638,235.802 L317.434,235.802 L317.434,236.418 L312.478,244.118 L317.476,244.118 L317.476,245 L311.19,245 L311.19,244.384 Z M321.137,244.454 L324.819,239.05 L321.543,239.05 L321.543,238.21 L326.107,238.21 L326.107,238.756 L322.425,244.16 L326.233,244.16 L326.233,245 L321.137,245 L321.137,244.454 Z M3.372,282.95 C2.87733086,282.137996 2.63,280.990007 2.63,279.506 C2.63,278.021993 2.87733086,276.883337 3.372,276.09 C3.86666914,275.296663 4.5573289,274.9 5.444,274.9 C6.3306711,274.9 7.02133086,275.296663 7.516,276.09 C8.01066914,276.883337 8.258,278.021993 8.258,279.506 C8.258,280.990007 8.01066914,282.137996 7.516,282.95 C7.02133086,283.762004 6.3306711,284.168 5.444,284.168 C4.5573289,284.168 3.86666914,283.762004 3.372,282.95 Z M6.781,282.383 C7.10300161,281.743663 7.264,280.784673 7.264,279.506 C7.264,278.227327 7.10300161,277.27767 6.781,276.657 C6.45899839,276.03633 6.01333618,275.726 5.444,275.726 C4.87466382,275.726 4.42900161,276.03633 4.107,276.657 C3.78499839,277.27767 3.624,278.227327 3.624,279.506 C3.624,280.784673 3.78499839,281.743663 4.107,282.383 C4.42900161,283.022337 4.87466382,283.342 5.444,283.342 C6.01333618,283.342 6.45899839,283.022337 6.781,282.383 Z M17.624,283.146 L19.682,283.146 L19.682,276.356 L18.058,276.356 L18.058,275.698 C18.8140038,275.567333 19.4346642,275.357335 19.92,275.068 L20.704,275.068 L20.704,283.146 L22.566,283.146 L22.566,284 L17.624,284 L17.624,283.146 Z M31.862,283.398 C32.9166719,282.333995 33.7333304,281.480003 34.312,280.836 C34.8906696,280.191997 35.3363318,279.599336 35.649,279.058 C35.9616682,278.516664 36.118,278.008002 36.118,277.532 C36.118,276.990664 35.9686682,276.556668 35.67,276.23 C35.3713318,275.903332 34.9326696,275.74 34.354,275.74 C33.9993316,275.74 33.656335,275.837999 33.325,276.034 C32.993665,276.230001 32.6880014,276.495998 32.408,276.832 L31.806,276.244 C32.198002,275.814665 32.6086645,275.483335 33.038,275.25 C33.4673355,275.016665 33.9479973,274.9 34.48,274.9 C35.2920041,274.9 35.9359976,275.135664 36.412,275.607 C36.8880024,276.078336 37.126,276.705996 37.126,277.49 C37.126,278.031336 36.9743349,278.586664 36.671,279.156 C36.3676652,279.725336 35.9686691,280.29933 35.474,280.878 C34.9793309,281.45667 34.2746712,282.226662 33.36,283.188 L33.696,283.174 C34.2186693,283.136666 34.6059987,283.118 34.858,283.118 L37.56,283.118 L37.56,284 L31.862,284 L31.862,283.398 Z M46.618,282.908 L47.136,282.236 C47.4626683,282.572002 47.8103315,282.835666 48.179,283.027 C48.5476685,283.218334 48.9793309,283.314 49.474,283.314 C50.0433362,283.314 50.5053316,283.157668 50.86,282.845 C51.2146684,282.532332 51.392,282.114669 51.392,281.592 C51.392,280.359994 50.4166764,279.744 48.466,279.744 L48.466,278.946 C49.3806712,278.946 50.0433313,278.787335 50.454,278.47 C50.8646687,278.152665 51.07,277.732669 51.07,277.21 C51.07,276.761998 50.9253348,276.405001 50.636,276.139 C50.3466652,275.872999 49.9546691,275.74 49.46,275.74 C48.7506631,275.74 48.1020029,276.047997 47.514,276.664 L46.954,276.006 C47.7380039,275.268663 48.5826621,274.9 49.488,274.9 C50.2626705,274.9 50.8926642,275.098331 51.378,275.495 C51.8633358,275.891669 52.106,276.439997 52.106,277.14 C52.106,277.662669 51.9590015,278.103665 51.665,278.463 C51.3709985,278.822335 50.9673359,279.095332 50.454,279.282 L50.454,279.338 C51.0326696,279.468667 51.5063315,279.734665 51.875,280.136 C52.2436685,280.537335 52.428,281.031997 52.428,281.62 C52.428,282.133336 52.299668,282.583665 52.043,282.971 C51.7863321,283.358335 51.4386689,283.654666 51,283.86 C50.5613311,284.065334 50.071336,284.168 49.53,284.168 C48.3539941,284.168 47.3833372,283.748004 46.618,282.908 Z M67.66,281.48 L66.414,281.48 L66.414,284 L65.448,284 L65.448,281.48 L61.416,281.48 L61.416,280.822 L65.322,275.068 L66.414,275.068 L66.414,280.668 L67.66,280.668 L67.66,281.48 Z M65.448,280.668 L65.448,277.896 C65.448,277.541332 65.4713331,276.981337 65.518,276.216 L65.462,276.216 C65.2753324,276.552002 65.1306672,276.799333 65.028,276.958 L64.734,277.448 L62.508,280.668 L65.448,280.668 Z M77.705,283.832 C77.2429977,283.607999 76.8300018,283.314002 76.466,282.95 L76.984,282.278 C77.3013349,282.595335 77.6396649,282.847332 77.999,283.034 C78.3583351,283.220668 78.7853309,283.314 79.28,283.314 C79.6533352,283.314 79.9939985,283.225334 80.302,283.048 C80.6100015,282.870666 80.8526658,282.621002 81.03,282.299 C81.2073342,281.976998 81.296,281.606002 81.296,281.186 C81.296,280.55133 81.1186684,280.052002 80.764,279.688 C80.4093316,279.323998 79.9333363,279.142 79.336,279.142 C79.0373318,279.142 78.7736678,279.184 78.545,279.268 C78.3163322,279.352 78.0573348,279.491999 77.768,279.688 L77.208,279.338 L77.502,275.068 L81.884,275.068 L81.884,275.95 L78.398,275.95 L78.146,278.736 C78.3793345,278.605333 78.6079989,278.507334 78.832,278.442 C79.0560011,278.376666 79.303332,278.344 79.574,278.344 C80.3860041,278.344 81.0486641,278.579664 81.562,279.051 C82.0753359,279.522336 82.332,280.219995 82.332,281.144 C82.332,281.760003 82.1943347,282.296664 81.919,282.754 C81.6436653,283.211336 81.2796689,283.561332 80.827,283.804 C80.3743311,284.046668 79.8866693,284.168 79.364,284.168 C78.7199968,284.168 78.1670023,284.056001 77.705,283.832 Z M96.696,279.268 C97.1440022,279.744002 97.368,280.429996 97.368,281.326 C97.368,281.876669 97.2513345,282.366665 97.018,282.796 C96.7846655,283.225335 96.4696687,283.561332 96.073,283.804 C95.6763314,284.046668 95.244669,284.168 94.778,284.168 C94.1806637,284.168 93.6533356,284.007002 93.196,283.685 C92.7386644,283.362998 92.381668,282.880003 92.125,282.236 C91.8683321,281.591997 91.74,280.812671 91.74,279.898 C91.74,278.740661 91.8939985,277.78867 92.202,277.042 C92.5100015,276.29533 92.9159975,275.751668 93.42,275.411 C93.9240025,275.070332 94.4886635,274.9 95.114,274.9 C95.9353374,274.9 96.6306638,275.207997 97.2,275.824 L96.626,276.468 C96.4393324,276.243999 96.217668,276.069001 95.961,275.943 C95.7043321,275.816999 95.4313348,275.754 95.142,275.754 C94.4326631,275.754 93.8540022,276.068997 93.406,276.699 C92.9579978,277.329003 92.7246668,278.339326 92.706,279.73 C92.9953348,279.365998 93.3313314,279.079001 93.714,278.869 C94.0966686,278.658999 94.4746648,278.554 94.848,278.554 C95.6320039,278.554 96.2479978,278.791998 96.696,279.268 Z M95.94,282.782 C96.2480015,282.399331 96.402,281.914003 96.402,281.326 C96.402,280.700664 96.2573348,280.213002 95.968,279.863 C95.6786652,279.512998 95.2493362,279.338 94.68,279.338 C94.3626651,279.338 94.0336684,279.438332 93.693,279.639 C93.3523316,279.839668 93.0326682,280.149998 92.734,280.57 C92.808667,281.466004 93.0186649,282.154331 93.364,282.635 C93.7093351,283.115669 94.1853303,283.356 94.792,283.356 C95.2493356,283.356 95.6319985,283.164669 95.94,282.782 Z M109.212,279.611 C109.604002,278.402327 110.238662,277.182006 111.116,275.95 L106.608,275.95 L106.608,275.068 L112.292,275.068 L112.292,275.684 C111.60133,276.580004 111.067002,277.438663 110.689,278.26 C110.310998,279.081337 110.042667,279.930662 109.884,280.808 C109.725333,281.685338 109.618,282.749327 109.562,284 L108.512,284 C108.586667,282.282658 108.819998,280.819673 109.212,279.611 Z M122.918,283.853 C122.479331,283.642999 122.134001,283.351335 121.882,282.978 C121.629999,282.604665 121.504,282.184669 121.504,281.718 C121.504,281.176664 121.667332,280.700669 121.994,280.29 C122.320668,279.879331 122.726664,279.543335 123.212,279.282 L123.212,279.226 C122.371996,278.637997 121.952,277.952004 121.952,277.168 C121.952,276.719998 122.059332,276.325668 122.274,275.985 C122.488668,275.644332 122.784998,275.378334 123.163,275.187 C123.541002,274.995666 123.963331,274.9 124.43,274.9 C125.195337,274.9 125.804331,275.119331 126.257,275.558 C126.709669,275.996669 126.936,276.565996 126.936,277.266 C126.936,277.695335 126.810001,278.103665 126.558,278.491 C126.305999,278.878335 126.016668,279.197999 125.69,279.45 L125.69,279.506 C126.175336,279.795335 126.555665,280.112665 126.831,280.458 C127.106335,280.803335 127.244,281.246664 127.244,281.788 C127.244,282.226669 127.125001,282.627998 126.887,282.992 C126.648999,283.356002 126.315335,283.642999 125.886,283.853 C125.456665,284.063001 124.962003,284.168 124.402,284.168 C123.851331,284.168 123.356669,284.063001 122.918,283.853 Z M126.04,277.308 C126.04,276.831998 125.895335,276.440002 125.606,276.132 C125.316665,275.823998 124.920003,275.67 124.416,275.67 C123.977331,275.67 123.615668,275.807665 123.331,276.083 C123.046332,276.358335 122.904,276.719998 122.904,277.168 C122.904,277.662669 123.085998,278.054665 123.45,278.344 C123.814002,278.633335 124.34133,278.913332 125.032,279.184 C125.704003,278.595997 126.04,277.97067 126.04,277.308 Z M125.753,282.943 C126.093668,282.639665 126.264,282.250002 126.264,281.774 C126.264,281.391331 126.154334,281.071668 125.935,280.815 C125.715666,280.558332 125.447335,280.350667 125.13,280.192 C124.812665,280.033333 124.355336,279.837334 123.758,279.604 C123.356665,279.856001 123.034668,280.154665 122.792,280.5 C122.549332,280.845335 122.428,281.223331 122.428,281.634 C122.428,282.138003 122.619331,282.557998 123.002,282.894 C123.384669,283.230002 123.860664,283.398 124.43,283.398 C124.971336,283.398 125.412332,283.246335 125.753,282.943 Z M140.607,275.383 C141.069002,275.705002 141.428332,276.185663 141.685,276.825 C141.941668,277.464337 142.07,278.245995 142.07,279.17 C142.07,280.327339 141.916002,281.27933 141.608,282.026 C141.299998,282.77267 140.894003,283.316332 140.39,283.657 C139.885997,283.997668 139.321336,284.168 138.696,284.168 C137.855996,284.168 137.160669,283.860003 136.61,283.244 L137.184,282.6 C137.370668,282.824001 137.592332,282.998999 137.849,283.125 C138.105668,283.251001 138.373999,283.314 138.654,283.314 C139.363337,283.314 139.941998,283.001336 140.39,282.376 C140.838002,281.750664 141.071333,280.742674 141.09,279.352 C140.800665,279.716002 140.467002,280.000666 140.089,280.206 C139.710998,280.411334 139.335335,280.514 138.962,280.514 C138.168663,280.514 137.548002,280.278336 137.1,279.807 C136.651998,279.335664 136.428,278.647338 136.428,277.742 C136.428,277.200664 136.544666,276.713002 136.778,276.279 C137.011335,275.844998 137.326331,275.506668 137.723,275.264 C138.119669,275.021332 138.551331,274.9 139.018,274.9 C139.615336,274.9 140.144998,275.060998 140.607,275.383 Z M140.103,279.436 C140.443668,279.239999 140.763332,278.932002 141.062,278.512 C140.996666,277.615996 140.791335,276.925336 140.446,276.44 C140.100665,275.954664 139.62467,275.712 139.018,275.712 C138.560664,275.712 138.178002,275.900998 137.87,276.279 C137.561998,276.657002 137.408,277.144664 137.408,277.742 C137.408,278.367336 137.552665,278.854998 137.842,279.205 C138.131335,279.555002 138.560664,279.73 139.13,279.73 C139.438002,279.73 139.762332,279.632001 140.103,279.436 Z" id="Aa-Bb-Cc-Dd-Ee-Ff-Gg"></path>
        </g>
    </g>
</svg>