<svg width="48" height="48" viewBox="0 0 48 48" fill="none" style="cursor: pointer;" xmlns="http://www.w3.org/2000/svg">
<path d="M24 0C37.1906 0 48 10.9032 48 24.0938C48 37.2078 37.2891 48 24 48C10.7274 48 0 37.2239 0 24.0938C0 10.9032 10.8094 0 24 0ZM19.7812 44.7656C21.1311 45.0469 22.5656 45.1875 24 45.1875C25.4344 45.1875 26.8689 45.0469 28.2188 44.7656V38.1844C28.2188 36.6094 27.7969 36.0469 27.2344 35.2874C26.948 34.96 26.7751 34.6663 25.4908 32.7283L27.6562 32.3906C33.2252 31.5751 35.4188 28.678 36.2908 26.428C37.4158 23.4188 36.8251 19.6498 34.7999 17.2595C34.4905 16.8937 34.2374 16.2748 34.4623 15.6281C34.8845 14.3342 34.8281 12.2812 34.5469 11.4935C33.0557 11.7067 31.5223 12.7749 30.2435 13.5469C29.6543 13.8907 29.3452 13.7999 29.0625 13.8281C28.0349 13.6143 26.432 13.0968 23.9718 13.0968C22.4531 13.0968 20.8499 13.3217 19.2748 13.7717C18.9932 13.7651 18.5405 14.0046 17.7561 13.5469C16.4194 12.7324 14.9381 11.7008 13.4531 11.4935C13.1719 12.2812 13.1155 14.3342 13.5374 15.6281C13.7626 16.2748 13.5095 16.8937 13.1997 17.2595C11.1749 19.6501 10.5842 23.4188 11.7092 26.428C12.5812 28.678 14.7748 31.5751 20.3438 32.3906L22.5092 32.7283C21.1816 34.7314 21.0417 34.9717 20.7653 35.2874C20.2031 36.0469 19.7812 36.6094 19.7812 38.1844V44.7656ZM16.9688 43.9501V38.1844C16.9688 36.5812 17.3064 35.5126 17.7565 34.7249C13.4813 33.572 10.4436 31.0404 9.09375 27.4124C7.6593 23.5876 8.30603 19.0312 10.697 15.8811C10.2748 13.9969 10.2748 10.9874 11.2874 9.58118C11.7374 8.96265 12.3563 8.625 13.1437 8.625C13.1719 8.625 13.1719 8.625 13.1719 8.625C15.3527 8.74292 17.0691 9.84119 18.9093 10.9592C20.5968 10.5092 22.3125 10.2843 24.0282 10.2843C25.7717 10.2843 27.5156 10.5374 29.0621 10.9592C30.9994 9.79102 32.6993 8.73999 34.9406 8.625C35.6437 8.625 36.2626 8.96265 36.7126 9.58118C37.7249 10.9874 37.7249 13.9969 37.303 15.8811C39.694 19.0312 40.3407 23.6155 38.9062 27.4124C37.5564 31.0404 34.5187 33.572 30.2435 34.7249C30.5925 35.3353 30.8687 36.123 30.9774 37.1891C31.8409 37.4868 32.5898 37.5839 33.2864 37.3792C34.021 37.162 34.5934 36.6716 35.0907 35.8352C36.2076 33.9587 38.1101 32.4269 40.2762 32.6261L40.0291 35.4276C39.026 35.3357 38.0277 36.397 37.5092 37.2719C36.6537 38.7125 35.5012 39.6573 34.0829 40.0763C33.03 40.3865 32.0676 40.3792 31.0312 40.158V43.9501C39.2157 41.0812 45.1875 33.2626 45.1875 24.0938C45.1875 12.4501 35.6437 2.8125 24 2.8125C12.3563 2.8125 2.8125 12.4501 2.8125 24.0938C2.8125 33.2626 8.7843 41.0812 16.9688 43.9501Z" fill="black"/>
</svg>
