<svg width="48" height="48" viewBox="0 0 48 48" fill="none" class="social_svg" style="cursor: pointer;" xmlns="http://www.w3.org/2000/svg">
<path d="M40.9688 0H7.03125C3.15417 0 0 3.15417 0 7.03125V40.9688C0 44.8458 3.15417 48 7.03125 48H40.9688C44.8458 48 48 44.8458 48 40.9688V7.03125C48 3.15417 44.8458 0 40.9688 0ZM45.1875 40.9688C45.1875 43.2949 43.2949 45.1875 40.9688 45.1875H7.03125C4.70508 45.1875 2.8125 43.2949 2.8125 40.9688V7.03125C2.8125 4.70508 4.70508 2.8125 7.03125 2.8125H40.9688C43.2949 2.8125 45.1875 4.70508 45.1875 7.03125V40.9688Z" fill="black"/>
<path d="M8.53125 39.5625H16.9688V19.6875H8.53125V39.5625ZM11.3438 22.5H14.1562V36.75H11.3438V22.5Z" fill="black"/>
<path d="M31.0393 19.6875C31.0367 19.6875 31.0338 19.6875 31.0312 19.6875C30.059 19.6875 29.1119 19.8501 28.2188 20.1658V19.6875H19.7812V39.5625H28.2188V29.5312C28.2188 28.756 28.8497 28.125 29.625 28.125C30.4003 28.125 31.0312 28.756 31.0312 29.5312V39.5625H39.4688V28.5645C39.4688 24.0132 35.7766 19.6919 31.0393 19.6875ZM36.6562 36.75H33.8438V29.5312C33.8438 27.2051 31.9512 25.3125 29.625 25.3125C27.2988 25.3125 25.4066 27.2051 25.4062 29.5309V36.75H22.5938V22.5H25.4062V25.3143L27.657 23.6239C28.6359 22.8885 29.8026 22.5 31.0312 22.5H31.0367C34.0302 22.5029 36.6562 25.3367 36.6562 28.5645V36.75Z" fill="black"/>
<path d="M8.53125 16.875H16.9688V8.4375H8.53125V16.875ZM11.3438 11.25H14.1562V14.0625H11.3438V11.25Z" fill="black"/>
</svg>
